<svg width="377" height="142" viewBox="0 0 377 142" fill="none" xmlns="http://www.w3.org/2000/svg">
<g clip-path="url(#clip0_7_95)">
<path d="M8 136.955C16.5953 118.401 25.1907 99.8468 33.786 104.818C42.3807 109.789 50.976 138.287 59.5713 136.955C68.1667 135.623 76.762 104.461 85.3573 104.818C93.9527 105.175 102.547 137.05 111.143 136.955C119.738 136.859 128.333 104.793 136.929 104.818C145.524 104.843 154.119 136.961 162.714 136.955C171.309 136.949 179.905 104.818 188.5 104.818C197.095 104.818 205.691 136.949 214.286 136.955C222.881 136.961 231.476 104.843 240.071 104.818C248.667 104.793 257.262 136.859 265.857 136.955C274.453 137.05 283.047 105.175 291.643 104.818C300.238 104.461 308.833 135.623 317.429 136.955C326.024 138.287 334.619 109.789 343.214 104.818C351.809 99.8468 360.405 118.401 369 136.955" stroke="#B3D5BF" stroke-width="8"/>
<path d="M8.96 94V26.8H22.272V41.136L19.84 42.672C20.5227 40.4533 21.5893 38.32 23.04 36.272C24.576 34.224 26.4107 32.432 28.544 30.896C30.7627 29.2747 33.1093 27.9947 35.584 27.056C38.144 26.1173 40.7467 25.648 43.392 25.648C47.232 25.648 50.6027 26.288 53.504 27.568C56.4053 28.848 58.7947 30.768 60.672 33.328C62.5493 35.888 63.9147 39.088 64.768 42.928L62.72 42.416L63.616 40.24C64.5547 38.2773 65.8347 36.4427 67.456 34.736C69.1627 32.944 71.0827 31.3653 73.216 30C75.3493 28.6347 77.6107 27.568 80 26.8C82.3893 26.032 84.736 25.648 87.04 25.648C92.0747 25.648 96.2133 26.672 99.456 28.72C102.784 30.768 105.259 33.8827 106.88 38.064C108.587 42.2453 109.44 47.4507 109.44 53.68V94H96.128V54.448C96.128 50.608 95.616 47.4933 94.592 45.104C93.6533 42.6293 92.2027 40.7947 90.24 39.6C88.2773 38.4053 85.76 37.808 82.688 37.808C80.2987 37.808 78.0373 38.2347 75.904 39.088C73.856 39.856 72.064 40.9653 70.528 42.416C68.992 43.8667 67.7973 45.5733 66.944 47.536C66.0907 49.4133 65.664 51.504 65.664 53.808V94H52.352V54.192C52.352 50.6933 51.84 47.7493 50.816 45.36C49.792 42.8853 48.2987 41.008 46.336 39.728C44.3733 38.448 41.984 37.808 39.168 37.808C36.7787 37.808 34.56 38.2347 32.512 39.088C30.464 39.856 28.672 40.9653 27.136 42.416C25.6 43.7813 24.4053 45.4453 23.552 47.408C22.6987 49.2853 22.272 51.3333 22.272 53.552V94H8.96ZM147.571 95.28C140.659 95.28 134.515 93.8293 129.139 90.928C123.848 87.9413 119.667 83.888 116.595 78.768C113.608 73.648 112.115 67.76 112.115 61.104C112.115 55.8133 112.968 50.992 114.675 46.64C116.382 42.288 118.728 38.5333 121.715 35.376C124.787 32.1333 128.414 29.6587 132.595 27.952C136.862 26.16 141.47 25.264 146.419 25.264C150.771 25.264 154.824 26.1173 158.579 27.824C162.334 29.4453 165.576 31.7067 168.307 34.608C171.123 37.5093 173.256 40.9653 174.707 44.976C176.243 48.9013 176.968 53.2107 176.883 57.904L176.755 63.536H121.843L118.899 53.04H165.363L163.443 55.216V52.144C163.187 49.328 162.248 46.8107 160.627 44.592C159.006 42.3733 156.958 40.624 154.483 39.344C152.008 38.064 149.32 37.424 146.419 37.424C141.811 37.424 137.928 38.32 134.771 40.112C131.614 41.8187 129.224 44.3787 127.603 47.792C125.982 51.12 125.171 55.2587 125.171 60.208C125.171 64.9013 126.152 68.9973 128.115 72.496C130.078 75.9093 132.851 78.5547 136.435 80.432C140.019 82.3093 144.158 83.248 148.851 83.248C152.179 83.248 155.251 82.6933 158.067 81.584C160.968 80.4747 164.083 78.4693 167.411 75.568L174.067 84.912C172.019 86.96 169.502 88.752 166.515 90.288C163.614 91.824 160.499 93.0613 157.171 94C153.928 94.8533 150.728 95.28 147.571 95.28ZM180.331 94V26.8H193.515V40.624L191.211 42.16C192.064 39.1733 193.728 36.4427 196.203 33.968C198.678 31.408 201.622 29.36 205.035 27.824C208.448 26.2027 211.947 25.392 215.531 25.392C220.651 25.392 224.918 26.416 228.331 28.464C231.744 30.4267 234.304 33.456 236.011 37.552C237.718 41.648 238.571 46.8107 238.571 53.04V94H225.387V53.936C225.387 50.096 224.875 46.9387 223.851 44.464C222.827 41.904 221.248 40.0693 219.115 38.96C216.982 37.7653 214.336 37.2533 211.179 37.424C208.619 37.424 206.272 37.8507 204.139 38.704C202.006 39.472 200.128 40.5813 198.507 42.032C196.971 43.4827 195.734 45.1893 194.795 47.152C193.942 49.0293 193.515 51.0773 193.515 53.296V94H186.987C185.878 94 184.768 94 183.659 94C182.55 94 181.44 94 180.331 94ZM253.896 94V9.64799H267.08V94H253.896ZM239.944 39.6V26.8H282.696V39.6H239.944ZM309.052 95.28C303.505 95.28 298.428 93.744 293.82 90.672C289.297 87.6 285.671 83.4187 282.94 78.128C280.209 72.8373 278.844 66.864 278.844 60.208C278.844 53.4667 280.209 47.4933 282.94 42.288C285.756 36.9973 289.511 32.8587 294.204 29.872C298.983 26.8853 304.316 25.392 310.204 25.392C313.703 25.392 316.903 25.904 319.804 26.928C322.705 27.952 325.223 29.4027 327.356 31.28C329.575 33.072 331.367 35.1627 332.732 37.552C334.183 39.9413 335.079 42.5013 335.42 45.232L332.476 44.208V26.8H345.788V94H332.476V78L335.548 77.104C335.036 79.408 333.969 81.6693 332.348 83.888C330.812 86.0213 328.807 87.9413 326.332 89.648C323.943 91.3547 321.255 92.72 318.268 93.744C315.367 94.768 312.295 95.28 309.052 95.28ZM312.508 83.12C316.519 83.12 320.06 82.1387 323.132 80.176C326.204 78.2133 328.593 75.5253 330.3 72.112C332.092 68.6133 332.988 64.6453 332.988 60.208C332.988 55.856 332.092 51.9733 330.3 48.56C328.593 45.1467 326.204 42.4587 323.132 40.496C320.06 38.5333 316.519 37.552 312.508 37.552C308.583 37.552 305.084 38.5333 302.012 40.496C299.025 42.4587 296.636 45.1467 294.844 48.56C293.137 51.9733 292.284 55.856 292.284 60.208C292.284 64.6453 293.137 68.6133 294.844 72.112C296.636 75.5253 299.025 78.2133 302.012 80.176C305.084 82.1387 308.583 83.12 312.508 83.12ZM353.572 94V-0.720001H366.756V94H353.572Z" fill="black"/>
</g>
<defs>
<clipPath id="clip0_7_95">
<rect width="377" height="142" fill="white"/>
</clipPath>
</defs>
</svg>
